# AST/ASF file generated using VICON BodyLanguage
# -----------------------------------------------
:version 1.10
:name VICON
:units
  mass 1.0
  length 0.45
  angle deg
:documentation
   .ast/.asf automatically generated from VICON data using
   VICON BodyBuilder and BodyLanguage model FoxedUp or BRILLIANT.MOD
:root
   order TX TY TZ RX RY RZ
   axis XYZ
   position 0 0 0  
   orientation 0 0 0 
:bonedata
  begin
     id 1 
     name lhipjoint
     direction 0.702568 -0.596508 0.388042 
     length 2.56661 
     axis 0 0 0  XYZ
  end
  begin
     id 2 
     name lfemur
     direction 0.34202 -0.939693 0  
     length 6.58374  
     axis 0 0 20  XYZ
    dof rx ry rz
    limits (-160.0 20.0)
           (-70.0 70.0)
           (-60.0 70.0)
  end
  begin
     id 3 
     name ltibia
     direction 0.34202 -0.939693 0   
     length 6.62538   
     axis 0 0 20   XYZ
    dof rx
    limits (-10.0 170.0)
  end
  begin
     id 4 
     name lfoot
     direction 0.10455 -0.287249 0.952133   
     length 2.26699   
     axis -90 7.62852e-016 20   XYZ
    dof rx rz
    limits (-45.0 90.0)
           (-70.0 20.0)
  end
  begin
     id 5 
     name ltoes
     direction 1.53572e-011 -4.22322e-011 1   
     length 1.12949   
     axis -90 7.62852e-016 20   XYZ
    dof rx
    limits (-90.0 20.0)
  end
  begin
     id 6 
     name rhipjoint
     direction -0.728055 -0.574632 0.373811   
     length 2.66432  
     axis 0 0 0  XYZ 
  end
  begin
     id 7 
     name rfemur
     direction -0.34202 -0.939693 0   
     length 6.66732   
     axis 0 0 -20   XYZ
    dof rx ry rz
    limits (-160.0 20.0)
           (-70.0 70.0)
           (-70.0 60.0)
  end
  begin
     id 8 
     name rtibia
     direction -0.34202 -0.939693 0   
     length 6.59288   
     axis 0 0 -20   XYZ
    dof rx
    limits (-10.0 170.0)
 end
 begin
     id 9 
     name rfoot
     direction -0.119193 -0.327479 0.93731   
     length 2.38061  
     axis -90 -7.62852e-016 -20   XYZ
    dof rx rz
    limits (-45.0 90.0)
           (-20.0 70.0)
  end
  begin
     id 10 
     name rtoes
     direction -1.53547e-011 -4.21827e-011 1   
     length 1.17899   
     axis -90 -7.62852e-016 -20   XYZ
    dof rx
    limits (-90.0 20.0)
  end
  begin
     id 11 
     name lowerback
     direction -0.000416114 0.999912 -0.0132284   
     length 2.12109   
     axis 0 0 0   XYZ
    dof rx ry rz
    limits (-20.0 45.0)
           (-30.0 30.0)
           (-30.0 30.0)
  end
  begin
     id 12 
     name upperback
     direction -0.00136371 0.99809 0.0617608   
     length 2.10067   
     axis 0 0 0   XYZ
    dof rx ry rz
    limits (-20.0 45.0)
           (-30.0 30.0)
           (-30.0 30.0)
  end
  begin
     id 13 
     name thorax
     direction -3.43026e-005 0.997776 0.0666515   
     length 2.10618   
     axis 0 0 0   XYZ
    dof rx ry rz
    limits (-20.0 45.0)
           (-30.0 30.0)
           (-30.0 30.0)
  end
  begin
     id 14 
     name lowerneck
     direction 0.0398646 0.998418 0.0396592   
     length 1.83817   
     axis 0 0 0   XYZ
    dof rx ry rz
    limits (-20.0 45.0)
           (-30.0 30.0)
           (-30.0 30.0)
  end
  begin
     id 15 
     name upperneck
     direction -0.0367268 0.961527 -0.272244   
     length 1.81975   
     axis 0 0 0   XYZ
    dof rx ry rz
    limits (-20.0 45.0)
           (-30.0 30.0)
           (-30.0 30.0)
  end
  begin
     id 16
     name head
     direction -0.0182665 0.99536 -0.0944669  
     length 1.86026  
     axis 0 0 0   XYZ
    dof rx ry rz
    limits (-20.0 45.0)
           (-30.0 30.0)
           (-30.0 30.0)
  end
  begin
     id 17 
     name lclavicle
     direction 0.924239 0.361045 0.124212  
     length 3.26878  
     axis 0 0 0   XYZ
    dof ry rz
    limits (-20.0 10.0)
           (0.0 20.0)
  end
  begin
     id 18 
     name lhumerus
     direction 1 -4.48968e-011 -2.56583e-027   
     length 4.58538   
     axis 180 -30 -90   XYZ
    dof rx ry rz
    limits (-60.0 90.0)
           (-90.0 90.0)
           (-90.0 90.0)
  end
  begin
     id 19
     name lradius
     direction 1 -4.4898e-011 -5.50375e-027   
     length 2.68935   
     axis 180 -30 -90   XYZ
    dof rx
    limits (-10.0 170.0)
  end
  begin
     id 20
     name lwrist
     direction 1 -4.48939e-011 -1.48955e-026   
     length 1.34468   
     axis 9.0955e-015 90 90   XYZ
    dof ry
    limits (-180.0 0.0)
 end
  begin
     id 21 
     name lhand
     direction 1 -4.48936e-011 -2.97907e-026   
     length 0.585058   
     axis 1.90115e-014 90 90   XYZ
    dof rx rz
    limits (-90.0 90.0)
           (-45.0 45.0)
  end
  begin
     id 22 
     name lfingers
     direction 1 -4.49082e-011 -5.96235e-026   
     length 0.471689   
     axis 3.80223e-014 90 90   XYZ
    dof rx
    limits (0.0 90.0)
  end
  begin
     id 23
     name lthumb
     direction 0.707107 -6.3489e-011 0.707107   
     length 0.677253   
     axis -90 45 -3.84942e-014   XYZ
    dof rx rz
    limits (-45.0 45.0)
           (-45.0 45.0)
  end
  begin
     id 24 
     name rclavicle
     direction -0.923098 0.371783 0.0983239   
     length 3.19656  
     axis 0 0 0   XYZ 
    dof ry rz
    limits (-10.0 20.0)
           (-20.0 0.0)
  end
  begin
     id 25 
     name rhumerus
     direction -1 -4.48976e-011 -2.5492e-027  
     length 4.4745   
     axis 180 30 90   XYZ
    dof rx ry rz
    limits (-90.0 60.0)
           (-90.0 90.0)
           (-90.0 90.0)
  end
  begin
     id 26 
     name rradius
     direction -1 -4.48941e-011 -4.36555e-027   
     length 2.93896   
     axis 180 30 90   XYZ
    dof rx
    limits (-10.0 170.0)
  end
  begin
     id 27 
     name rwrist
     direction -1 -4.49044e-011 -1.49032e-026   
     length 1.46948   
     axis 9.0955e-015 -90 -90   XYZ
    dof ry
    limits (-180.0 0.0)
  end
  begin
     id 28
     name rhand
     direction -1 -4.48826e-011 -2.97749e-026   
     length 0.405092   
     axis 1.90115e-014 -90 -90   XYZ
    dof rx rz
    limits (-90.0 90.0)
           (-45.0 45.0)
  end
  begin
     id 29
     name rfingers
     direction -1 -4.49209e-011 -5.96602e-026   
     length 0.326596   
     axis 3.80223e-014 -90 -90   XYZ
    dof rx
    limits (0.0 90.0)
  end
  begin
     id 30
     name rthumb
     direction -0.707107 -6.34776e-011 0.707107   
     length 0.468928   
     axis -90 -45 3.84942e-014   XYZ
    dof rx rz
    limits (-45.0 45.0)
           (-45.0 45.0)
  end
:hierarchy
  begin
    root lhipjoint rhipjoint lowerback
    lhipjoint lfemur
    lfemur ltibia
    ltibia lfoot
    lfoot ltoes
    rhipjoint rfemur
    rfemur rtibia
    rtibia rfoot
    rfoot rtoes
    lowerback upperback
    upperback thorax
    thorax lowerneck lclavicle rclavicle
    lowerneck upperneck
    upperneck head
    lclavicle lhumerus
    lhumerus lradius
    lradius lwrist
    lwrist lhand lthumb
    lhand lfingers
    rclavicle rhumerus
    rhumerus rradius
    rradius rwrist
    rwrist rhand rthumb
    rhand rfingers
  end

#!OML:ASF H:\Punching\Project 1\Capture day 1\Session 1\female.ASF
:FULLY-SPECIFIED
:DEGREES
766
root -0.514494 14.8984 2.83211 11.6937 -2.23007 7.21933
lowerback -2.90407 -2.0395 1.73531
upperback -6.95346 -2.85495 -2.60729
thorax -5.8173 -1.61174 -3.62017
lowerneck -9.10793 8.13586 10.6059
upperneck 37.8476 14.3295 -11.6344
head 17.0609 6.12833 -4.56002
rclavicle 1.16786e-014 5.36719e-015
rhumerus 20.728 24.9841 -60.2731
rradius 125.837
rwrist -19.4361
rhand -29.8913 9.69488
rfingers 7.12502
rthumb -3.21251 -20.2607
lclavicle 1.16786e-014 5.36719e-015
lhumerus -2.74389 -13.8074 64.0093
lradius 139.408
lwrist -0.121667
lhand -25.0826 2.3129
lfingers 7.12502
lthumb 1.43178 32.2878
rfemur -43.629 -3.46528 18.2826
rtibia 56.948
rfoot -23.4307 -11.1613
rtoes 10.4825
lfemur -16.31 -1.24407 -16.892
ltibia 70.6746
lfoot 11.6521 21.0324
ltoes 4.92618
767
root -0.495605 14.8722 2.79656 12.1405 -1.60382 7.26911
lowerback -2.98421 -2.15146 1.53998
upperback -7.09039 -3.00449 -2.52648
thorax -5.91336 -1.67574 -3.42268
lowerneck -9.31174 8.06021 10.5357
upperneck 37.7235 14.15 -11.5191
head 16.9866 6.05177 -4.5139
rclavicle -3.19919e-014 -1.23246e-014
rhumerus 20.7956 24.6669 -60.0465
rradius 125.923
rwrist -19.5116
rhand -29.9108 9.63217
rfingers 7.12502
rthumb -3.23134 -20.3231
lclavicle -3.19919e-014 -1.23246e-014
lhumerus -2.60929 -13.8682 64.0542
lradius 139.394
lwrist -0.0907192
lhand -25.0759 2.44454
lfingers 7.12502
lthumb 1.43829 32.4194
rfemur -44.482 -3.69609 18.1659
rtibia 57.5461
rfoot -23.5258 -11.4841
rtoes 10.3457
lfemur -14.6712 -0.897368 -16.1579
ltibia 67.9275
lfoot 10.2526 21.2598
ltoes 4.88487
768
root -0.475069 14.8461 2.75896 12.5897 -0.9607 7.30789
lowerback -3.04605 -2.26222 1.37109
upperback -7.22472 -3.15184 -2.44234
thorax -6.01717 -1.73952 -3.2361
lowerneck -9.51059 7.97585 10.4623
upperneck 37.5678 13.9604 -11.4198
head 16.8945 5.96939 -4.47545
rclavicle -3.71479e-015 -5.96354e-015
rhumerus 20.8717 24.3262 -59.8059
rradius 126.006
rwrist -19.5766
rhand -29.9186 9.59823
rfingers 7.12502
rthumb -3.23887 -20.3569
lclavicle -3.71479e-015 -5.96354e-015
lhumerus -2.45567 -13.9337 64.1161
lradius 139.368
lwrist -0.103434
lhand -25.092 2.54891
lfingers 7.12502
lthumb 1.42274 32.5239
rfemur -45.3302 -3.94273 18.0573
rtibia 58.1279
rfoot -23.6084 -11.8133
rtoes 10.1934
lfemur -13.1257 -0.581016 -15.4095
ltibia 65.1649
lfoot 9.02609 21.3383
ltoes 4.7161
769
root -0.452185 14.8175 2.71863 13.0373 -0.30374 7.3371
lowerback -3.08963 -2.37135 1.22837
upperback -7.35341 -3.29636 -2.35301
thorax -6.12544 -1.80266 -3.05823
lowerneck -9.72502 7.88727 10.3806
upperneck 37.4017 13.7695 -11.333
head 16.8026 5.88343 -4.44087
rclavicle -1.12065e-014 -2.78299e-015
rhumerus 20.9662 23.9666 -59.5437
rradius 126.092
rwrist -19.6388
rhand -29.9218 9.56165
rfingers 7.12502
rthumb -3.24196 -20.3935
lclavicle -1.12065e-014 -2.78299e-015
lhumerus -2.28415 -13.9972 64.195
lradius 139.331
lwrist -0.156519
lhand -25.1237 2.63009
lfingers 7.12502
lthumb 1.39213 32.6053
rfemur -46.1877 -4.21582 17.9546
rtibia 58.7055
rfoot -23.6762 -12.1302
rtoes 10.0357
lfemur -11.6738 -0.311358 -14.657
ltibia 62.4073
lfoot 7.94477 21.3045
ltoes 4.44362
770
root -0.427719 14.7917 2.67709 13.4741 0.374001 7.36464
lowerback -3.11359 -2.48094 1.10379
upperback -7.47213 -3.44097 -2.26063
thorax -6.23427 -1.86621 -2.88663
lowerneck -9.95951 7.79585 10.2805
upperneck 37.234 13.5785 -11.2469
head 16.7144 5.79402 -4.40301
rclavicle 1.09456e-014 1.70955e-014
rhumerus 21.0786 23.5854 -59.2633
rradius 126.181
rwrist -19.6967
rhand -29.923 9.53845
rfingers 7.12502
rthumb -3.24305 -20.4166
lclavicle 1.09456e-014 1.70955e-014
lhumerus -2.10098 -14.0627 64.295
lradius 139.283
lwrist -0.240287
lhand -25.1528 2.67961
lfingers 7.12502
lthumb 1.36401 32.655
rfemur -47.013 -4.52984 17.8537
rtibia 59.26
rfoot -23.746 -12.4299
rtoes 9.89579
lfemur -10.2911 -0.108493 -13.9167
ltibia 59.6383
lfoot 6.9899 21.1863
ltoes 4.06919
771
root -0.40113 14.7653 2.63344 13.8933 1.07431 7.39581
lowerback -3.11519 -2.59443 0.988928
upperback -7.57476 -3.59017 -2.16338
thorax -6.33827 -1.93177 -2.71443
lowerneck -10.2009 7.70187 10.1786
upperneck 37.041 13.3899 -11.1839
head 16.6186 5.70276 -4.37373
rclavicle 4.21051e-014 8.34896e-015
rhumerus 21.2216 23.1854 -58.9604
rradius 126.27
rwrist -19.7499
rhand -29.931 9.52605
rfingers 7.12502
rthumb -3.25084 -20.4289
lclavicle 4.21051e-014 8.34896e-015
lhumerus -1.89902 -14.1283 64.4108
lradius 139.227
lwrist -0.34851
lhand -25.2144 2.68088
lfingers 7.12502
lthumb 1.30448 32.6566
rfemur -47.8201 -4.89263 17.75
rtibia 59.8089
rfoot -23.811 -12.7066
rtoes 9.76857
lfemur -8.98208 0.0104492 -13.2002
ltibia 56.8817
lfoot 6.13153 20.9993
ltoes 3.48469
772
root -0.372086 14.7385 2.58794 14.3031 1.7849 7.43934
lowerback -3.10988 -2.70709 0.879891
upperback -7.6652 -3.73794 -2.06592
thorax -6.4325 -1.9964 -2.54511
lowerneck -10.4554 7.60695 10.077
upperneck 36.8429 13.2069 -11.1404
head 16.5282 5.61121 -4.35198
rclavicle 1.81267e-014 7.55382e-015
rhumerus 21.3813 22.771 -58.6452
rradius 126.366
rwrist -19.8042
rhand -29.9508 9.49611
rfingers 7.12502
rthumb -3.26995 -20.4586
lclavicle 1.81267e-014 7.55382e-015
lhumerus -1.68529 -14.1861 64.537
lradius 139.191
lwrist -0.408895
lhand -25.242 2.71831
lfingers 7.12502
lthumb 1.27783 32.6942
rfemur -48.6193 -5.31353 17.6377
rtibia 60.3464
rfoot -23.8641 -12.9455
rtoes 9.67014
lfemur -7.74865 0.0392544 -12.5314
ltibia 54.1389
lfoot 5.36279 20.7712
ltoes 2.68918
773
root -0.340937 14.7119 2.54087 14.6932 2.50863 7.49669
lowerback -3.08925 -2.82062 0.769531
upperback -7.73775 -3.88652 -1.96715
thorax -6.51513 -2.06072 -2.37318
lowerneck -10.7178 7.50782 9.97338
upperneck 36.6269 13.0236 -11.1169
head 16.4335 5.51681 -4.33823
rclavicle -3.52222e-014 -6.75868e-015
rhumerus 21.5702 22.3346 -58.3127
rradius 126.46
rwrist -19.8559
rhand -29.9771 9.46115
rfingers 7.12502
rthumb -3.29531 -20.4931
lclavicle -3.52222e-014 -6.75868e-015
lhumerus -1.45951 -14.2538 64.6775
lradius 139.159
lwrist -0.450892
lhand -25.2795 2.75768
lfingers 7.12502
lthumb 1.2416 32.7338
rfemur -49.3962 -5.79153 17.5175
rtibia 60.877
rfoot -23.913 -13.1539
rtoes 9.5889
lfemur -6.58356 -0.0395514 -11.9155
ltibia 51.4278
lfoot 4.63778 20.528
ltoes 1.666
